<svg xmlns="http://www.w3.org/2000/svg" viewBox="0 0 512 512"><path d="M512 118.771H0V97.103a8.829 8.829 0 0 1 8.828-8.828h494.345a8.829 8.829 0 0 1 8.828 8.828v21.668z" fill="#ff4b55"/><path fill="#f5f5f5" d="M0 118.775h512v30.495H0z"/><path fill="#ff4b55" d="M0 149.263h512v30.495H0z"/><path fill="#f5f5f5" d="M0 179.763h512v30.495H0z"/><path d="M512 240.753H8.828A8.829 8.829 0 0 1 0 231.925v-21.667h512v30.495z" fill="#ff4b55"/><path fill="#f5f5f5" d="M512 271.247H0v-41.73h8.826l.002 11.236H512z"/><path fill="#ff4b55" d="M0 271.25h512v30.495H0z"/><path fill="#f5f5f5" d="M0 301.738h512v30.495H0z"/><path fill="#ff4b55" d="M0 332.237h512v30.495H0z"/><path fill="#f5f5f5" d="M0 362.737h512v30.495H0z"/><path d="M503.172 423.724H8.828A8.829 8.829 0 0 1 0 414.896v-21.667h512v21.667a8.828 8.828 0 0 1-8.828 8.828z" fill="#ff4b55"/><path d="M141.241 240.753H8.828A8.829 8.829 0 0 1 0 231.925V97.103a8.829 8.829 0 0 1 8.828-8.828h132.414a8.829 8.829 0 0 1 8.828 8.828v134.822a8.83 8.83 0 0 1-8.829 8.828z" fill="#41479b"/><path d="M72.512 127.737l-8.428 25.27-26.638.206c-2.554.02-3.614 3.279-1.559 4.797l21.429 15.825-8.035 25.398c-.77 2.435 2.003 4.45 4.081 2.965l21.674-15.49 21.672 15.49c2.078 1.485 4.851-.53 4.081-2.965l-8.035-25.398 21.429-15.825c2.055-1.517.995-4.778-1.559-4.797l-26.638-.206-8.428-25.27c-.81-2.424-4.237-2.424-5.046 0z" fill="#f5f5f5"/></svg>