<svg xmlns="http://www.w3.org/2000/svg" viewBox="0 0 512 512"><path d="M0 125.55h512v37.272H0zm0 74.538h512v37.272H0zm0 74.549h512v37.272H0z" fill="#f5f5f5"/><path fill="#41479b" d="M0 311.912h512v37.272H0z"/><path fill="#f5f5f5" d="M0 349.175h512v37.272H0z"/><path d="M8.828 423.724h494.345a8.829 8.829 0 0 0 8.828-8.828v-28.445H0v28.445a8.828 8.828 0 0 0 8.828 8.828zM512 125.548V97.103a8.829 8.829 0 0 0-8.828-8.828H8.828A8.83 8.83 0 0 0 0 97.103v177.533h512v-37.272H176.552v-37.272H512V162.82H176.552v-37.272H512z" fill="#41479b"/><path fill="#f5f5f5" d="M176.552 162.82h-69.64V88.276H69.64v74.544H0v37.272h69.64v74.544h37.272v-74.544h69.64z"/></svg>