<svg xmlns="http://www.w3.org/2000/svg" viewBox="0 0 512 512"><path d="M512 200.092H0V97.103a8.829 8.829 0 0 1 8.828-8.828h494.345a8.829 8.829 0 0 1 8.828 8.828v102.989z" fill="#73af00"/><path d="M503.172 423.724H8.828A8.829 8.829 0 0 1 0 414.896V311.908h512v102.988a8.828 8.828 0 0 1-8.828 8.828z" fill="#ff4b55"/><path fill="#f5f5f5" d="M0 200.088h512V311.9H0z"/><path d="M3.256 421.59l137.985-109.532-.003-112.12L3.256 90.41C1.311 92.029 0 94.375 0 97.103v317.793c0 2.729 1.311 5.075 3.256 6.694z" fill="#464655"/></svg>