<svg xmlns="http://www.w3.org/2000/svg" viewBox="0 0 512 512"><path d="M503.172 423.724H8.828A8.829 8.829 0 0 1 0 414.896V97.103a8.829 8.829 0 0 1 8.828-8.828h494.345a8.829 8.829 0 0 1 8.828 8.828v317.793a8.83 8.83 0 0 1-8.829 8.828z" fill="#41479b"/><path fill="#f5f5f5" d="M0 150.069h512v211.862H0z"/><path d="M301.869 256l22.933-39.721h-45.865L256 176.552l-22.936 39.727h-45.865L210.132 256l-22.933 39.721h45.865L256 335.448l22.936-39.727h45.865L301.869 256zm.433-26.73l-7.933 13.74-7.933-13.74h15.866zM286.869 256l-15.433 26.73h-30.873L225.131 256l15.433-26.73h30.873L286.869 256zM256 202.534l7.936 13.746h-15.872L256 202.534zm-46.302 26.736h15.865l-7.933 13.74-7.932-13.74zm0 53.46l7.933-13.74 7.933 13.74h-15.866zM256 309.466l-7.936-13.746h15.872L256 309.466zm38.369-40.476l7.933 13.74h-15.865l7.932-13.74z" fill="#41479b"/></svg>