<svg xmlns="http://www.w3.org/2000/svg" viewBox="0 0 511.999 511.999"><path d="M211.862 423.723H8.828A8.829 8.829 0 0 1 0 414.895V97.103a8.829 8.829 0 0 1 8.828-8.828h203.034v335.448z" fill="#f5f5f5"/><path d="M141.241 88.276l70.621 20.965-70.621 20.965 70.621 20.965-70.621 20.965 70.621 20.965-70.621 20.965 70.621 20.965-70.621 20.965 70.621 20.965-70.621 20.965 70.621 20.965-70.621 20.965 70.621 20.965-70.621 20.965 70.621 20.965-70.621 20.965h361.93a8.829 8.829 0 0 0 8.828-8.828V97.103a8.829 8.829 0 0 0-8.828-8.828h-361.93z" fill="#ff4b55"/></svg>