<svg xmlns="http://www.w3.org/2000/svg" viewBox="0 0 512 512"><path d="M503.172 423.724H8.828A8.829 8.829 0 0 1 0 414.896V97.103a8.829 8.829 0 0 1 8.828-8.828h494.345a8.829 8.829 0 0 1 8.828 8.828v317.793a8.83 8.83 0 0 1-8.829 8.828z" fill="#ff4b55"/><path d="M185.379 88.276H8.828A8.828 8.828 0 0 0 0 97.103v317.793a8.829 8.829 0 0 0 8.828 8.828H185.38V88.276z" fill="#73af00"/><circle cx="185.446" cy="256" r="79.38" fill="#ffe15a"/><path d="M211.932 229.517v35.31c0 14.603-11.88 26.483-26.483 26.483s-26.483-11.88-26.483-26.483v-35.31h52.966m8.827-17.655h-70.621a8.829 8.829 0 0 0-8.828 8.828v44.138c0 24.376 19.762 44.138 44.138 44.138s44.138-19.762 44.138-44.138V220.69a8.827 8.827 0 0 0-8.827-8.828z" fill="#ff4b55"/><path d="M211.932 229.517v35.31c0 14.603-11.88 26.483-26.483 26.483s-26.483-11.88-26.483-26.483v-35.31h52.966" fill="#f5f5f5"/><g fill="#ffe15a"><circle cx="150.069" cy="220.69" r="4.414"/><circle cx="220.69" cy="220.69" r="4.414"/><circle cx="150.069" cy="256" r="4.414"/><circle cx="220.69" cy="256" r="4.414"/><circle cx="185.379" cy="220.69" r="4.414"/><circle cx="211.884" cy="288.552" r="4.414"/><circle cx="159.404" cy="288.552" r="4.414"/></g><path d="M191.149 253.762v7.602c0 3.144-2.558 5.702-5.702 5.702s-5.702-2.558-5.702-5.702v-7.602h11.404m0-18.022v7.602c0 3.144-2.558 5.702-5.702 5.702s-5.702-2.558-5.702-5.702v-7.602h11.404m0 36.229v7.602c0 3.144-2.558 5.702-5.702 5.702s-5.702-2.558-5.702-5.702v-7.602h11.404m15.357-18.207v7.602c0 3.144-2.558 5.702-5.702 5.702s-5.702-2.558-5.702-5.702v-7.602h11.404m-30.712 0v7.602c0 3.144-2.558 5.702-5.702 5.702s-5.702-2.558-5.702-5.702v-7.602h11.404" fill="#41479b"/></svg>