<svg xmlns="http://www.w3.org/2000/svg" viewBox="0 0 512 512"><path d="M8.828 423.724h494.345a8.829 8.829 0 0 0 8.828-8.828V97.103a8.829 8.829 0 0 0-8.828-8.828H8.828A8.83 8.83 0 0 0 0 97.103v317.793a8.828 8.828 0 0 0 8.828 8.828z" fill="#c8414b"/><path fill="#ffd250" d="M0 158.897h512v194.207H0z"/><path d="M216.276 256l7.485-33.681c.69-3.102-1.671-6.044-4.849-6.044h-5.272c-3.177 0-5.537 2.942-4.849 6.044L216.276 256z" fill="#c8414b"/><path fill="#f5f5f5" d="M207.448 238.345h17.655v75.034h-17.655z"/><path fill="#fab446" d="M203.034 229.517h26.483v8.828h-26.483z"/><path d="M185.379 256h44.138v8.828h-44.138zm44.138 35.31l-26.483-8.827v-8.828l26.483 8.828zM83.862 256l7.485-33.681c.69-3.102-1.671-6.044-4.849-6.044h-5.272c-3.177 0-5.537 2.942-4.849 6.044L83.862 256z" fill="#c8414b"/><path d="M114.759 229.517a8.829 8.829 0 0 0-8.828 8.828v57.379c0 10.725 10.01 30.897 44.138 30.897s44.138-20.171 44.138-30.897v-57.379a8.829 8.829 0 0 0-8.828-8.828h-70.62z" fill="#f5f5f5"/><path d="M150.069 273.655h-44.138v-35.31a8.829 8.829 0 0 1 8.828-8.828h35.31v44.138zm0 0h44.138v22.069c0 12.189-9.88 22.069-22.069 22.069-12.189 0-22.069-9.88-22.069-22.069v-22.069z" fill="#c8414b"/><path d="M105.931 273.655h44.138v22.069c0 12.189-9.88 22.069-22.069 22.069-12.189 0-22.069-9.88-22.069-22.069v-22.069z" fill="#fab446"/><path d="M141.241 313.28v-39.625h-8.828v43.693c3.284-.666 6.251-2.12 8.828-4.068zm-17.655 4.068v-43.693h-8.828v39.625c2.578 1.948 5.545 3.402 8.828 4.068z" fill="#c8414b"/><path fill="#ffb441" d="M114.759 256h26.483v8.828h-26.483z"/><g fill="#fab446"><path d="M114.759 238.345h26.483v8.828h-26.483z"/><path d="M119.172 243.586h17.655v15.992h-17.655z"/></g><path fill="#f5f5f5" d="M75.034 238.345h17.655v75.034H75.034z"/><path d="M70.621 308.966h26.483v8.828H70.621zm0-79.449h26.483v8.828H70.621z" fill="#fab446"/><path fill="#5064aa" d="M66.207 317.793h35.31v8.828h-35.31z"/><path fill="#fab446" d="M207.448 308.966h26.483v8.828h-26.483z"/><path fill="#5064aa" d="M198.621 317.793h35.31v8.828h-35.31z"/><path fill="#fab446" d="M123.586 220.69h52.966v8.828h-52.966z"/><path fill="#ffb441" d="M145.655 194.207h8.828v26.483h-8.828z"/><g fill="#f5f5f5"><path d="M141.241 207.448c-7.302 0-13.241-5.94-13.241-13.241 0-7.302 5.94-13.241 13.241-13.241 7.302 0 13.241 5.94 13.241 13.241.001 7.301-5.939 13.241-13.241 13.241zm0-17.655a4.417 4.417 0 0 0-4.414 4.414c0 2.435 1.978 4.414 4.414 4.414s4.414-1.978 4.414-4.414a4.417 4.417 0 0 0-4.414-4.414z"/><path d="M158.897 207.448c-7.302 0-13.241-5.94-13.241-13.241 0-7.302 5.94-13.241 13.241-13.241 7.302 0 13.241 5.94 13.241 13.241 0 7.301-5.94 13.241-13.241 13.241zm0-17.655a4.417 4.417 0 0 0-4.414 4.414 4.417 4.417 0 0 0 4.414 4.414 4.417 4.417 0 0 0 4.414-4.414 4.418 4.418 0 0 0-4.414-4.414z"/><path d="M176.552 216.276c-7.302 0-13.241-5.94-13.241-13.241 0-7.302 5.94-13.241 13.241-13.241 7.302 0 13.241 5.94 13.241 13.241 0 7.301-5.94 13.241-13.241 13.241zm0-17.655a4.417 4.417 0 0 0-4.414 4.414 4.417 4.417 0 0 0 4.414 4.414 4.417 4.417 0 0 0 4.414-4.414 4.417 4.417 0 0 0-4.414-4.414zm-52.966 17.655c-7.302 0-13.241-5.94-13.241-13.241 0-7.302 5.94-13.241 13.241-13.241 7.302 0 13.241 5.94 13.241 13.241.001 7.301-5.939 13.241-13.241 13.241zm0-17.655a4.417 4.417 0 0 0-4.414 4.414c0 2.435 1.978 4.414 4.414 4.414S128 205.47 128 203.034a4.416 4.416 0 0 0-4.414-4.413z"/></g><path d="M176.552 291.31v4.414a4.419 4.419 0 0 1-4.414 4.414 4.419 4.419 0 0 1-4.414-4.414v-4.414h8.828m8.827-8.827h-26.483v13.241c0 7.302 5.94 13.241 13.241 13.241 7.302 0 13.241-5.94 13.241-13.241v-13.241h.001z" fill="#fab446"/><path d="M172.138 264.828A8.829 8.829 0 0 1 163.31 256v-8.828a8.829 8.829 0 0 1 17.656 0V256a8.829 8.829 0 0 1-8.828 8.828z" fill="#ffa0d2"/><circle cx="150.069" cy="273.655" r="13.241" fill="#5064aa"/><path fill="#fab446" d="M145.655 176.552h8.828v26.483h-8.828z"/><path d="M123.586 220.69l-8.828-8.828 5.171-5.171a42.627 42.627 0 0 1 60.28 0l5.171 5.171-8.828 8.828h-52.966z" fill="#c8414b"/><g fill="#ffd250"><circle cx="150.069" cy="211.862" r="4.414"/><circle cx="132.414" cy="211.862" r="4.414"/><circle cx="167.724" cy="211.862" r="4.414"/></g><path d="M70.621 256h44.138v8.828H70.621zm0 35.31l26.482-8.827v-8.828l-26.482 8.828z" fill="#c8414b"/></svg>