<svg xmlns="http://www.w3.org/2000/svg" viewBox="0 0 512 512"><path d="M170.667 423.724H8.828A8.829 8.829 0 0 1 0 414.896V97.103a8.829 8.829 0 0 1 8.828-8.828h161.839v335.449z" fill="#73af00"/><path fill="#ffe15a" d="M170.67 88.276h170.67v335.448H170.67z"/><path d="M503.172 423.724H341.333V88.276h161.839A8.829 8.829 0 0 1 512 97.104v317.793a8.828 8.828 0 0 1-8.828 8.827z" fill="#ff4b55"/><path d="M258.04 205.78l11.693 35.062 36.959.287c2.067.017 2.924 2.654 1.261 3.881l-29.732 21.955 11.148 35.239c.623 1.971-1.62 3.601-3.302 2.399L256 283.109l-30.069 21.492c-1.682 1.202-3.925-.428-3.302-2.399l11.148-35.239-29.732-21.955c-1.663-1.228-.806-3.865 1.261-3.881l36.959-.287 11.693-35.062c.655-1.959 3.429-1.959 4.082.002z" fill="#73af00"/></svg>